# xmcd
#
# Track frame offsets:
#	150
#	12885
#	25420
#	36870
#	49935
#	62532
#	73870
#	87435
#	100610
#	112497
#	128015
#	142397
#	155122
#	165847
#	177467
#	190607
#	204842
#	219200
#	232850
#	246322
#	259085
#	273657
#	286772
#	298662
#	312605
#	325450
#	338532
#
# Disc length: 4698 seconds
#
# Revision: 0
# Processed by: cddbd v1.5.2PL0 Copyright (c) Steve Scherf et al.
# Submitted via: EasyCDDAExtractor 10.0.3.1
#
DISCID=9712581b
DTITLE=Red Foley - Old Shep (The Red Foley Recordings, 1933-50) - Disc 3
DYEAR=2006
DGENRE=Country
TTITLE0=That Silver Haired Daddy Of Mine
TTITLE1=Whoopee-Ti-Yi-Yo
TTITLE2=Cowboy's Dream
TTITLE3=They Cut Down The Old Pine Tree
TTITLE4=Little Rosewood Casket
TTITLE5=I'll Never Let You Worry My Mind Anymore
TTITLE6=One Little Lie Too Many
TTITLE7=Open Up That Door And Let Me In
TTITLE8=A Pillow Of Sighs And Tears
TTITLE9=At Mail Call Today (with Lawrence Welk)
TTITLE10=Shame On You (with Lawrence Welk)
TTITLE11=Harriet
TTITLE12=Love To You Is Just A Game
TTITLE13=Honey, Be My Honey Bee
TTITLE14=My Poor Little Heart Is Broken
TTITLE15=Till The End Of Time
TTITLE16=Atomic Power
TTITLE17=Foggy River
TTITLE18=Lay Down Your Soul
TTITLE19=Have I Told You Lately That I Love You
TTITLE20=Old Shep
TTITLE21=That's How Much I Love You
TTITLE22=Rye Whiskey
TTITLE23=New Jolie Blonde
TTITLE24=Freight Train Boogie
TTITLE25=Rockin' Chair Money
TTITLE26=Too Many Blues
EXTD=
EXTT0=
EXTT1=
EXTT2=
EXTT3=
EXTT4=
EXTT5=
EXTT6=
EXTT7=
EXTT8=
EXTT9=
EXTT10=
EXTT11=
EXTT12=
EXTT13=
EXTT14=
EXTT15=
EXTT16=
EXTT17=
EXTT18=
EXTT19=
EXTT20=
EXTT21=
EXTT22=
EXTT23=
EXTT24=
EXTT25=
EXTT26=
PLAYORDER=
